<?xml version="1.0" standalone="no"?>
<!DOCTYPE svg PUBLIC "-//W3C//DTD SVG 20010904//EN"
 "http://www.w3.org/TR/2001/REC-SVG-20010904/DTD/svg10.dtd">
<svg version="1.0" xmlns="http://www.w3.org/2000/svg"
 width="332.000000pt" height="177.000000pt" viewBox="0 0 332.000000 177.000000"
 preserveAspectRatio="xMidYMid meet">
<metadata>
Created by potrace 1.16, written by Peter Selinger 2001-2019
</metadata>
<g transform="translate(0.000000,177.000000) scale(0.100000,-0.100000)"
fill="#000000" stroke="none">
<path d="M140 890 l0 -640 220 0 220 0 0 95 0 94 -122 3 -123 3 -3 443 -2 442
125 0 125 0 0 100 0 100 -220 0 -220 0 0 -640z"/>
<path d="M957 1524 c-4 -4 -7 -49 -7 -101 l0 -93 125 0 125 0 0 -445 0 -445
-125 0 -125 0 0 -95 0 -95 223 2 222 3 0 635 0 635 -216 3 c-118 1 -218 -1
-222 -4z"/>
<path d="M1710 1080 l0 -190 65 0 c51 0 65 3 65 15 0 11 -12 15 -45 15 l-45 0
0 75 0 75 40 0 c33 0 40 3 40 20 0 17 -7 20 -40 20 l-40 0 0 60 0 60 45 0 c38
0 45 3 45 20 0 18 -7 20 -65 20 l-65 0 0 -190z"/>
<path d="M1880 1080 c0 -161 2 -190 15 -190 12 0 15 26 17 153 l3 152 25 -150
c23 -135 27 -150 45 -150 18 0 23 15 44 133 14 72 27 132 30 132 3 0 5 -61 3
-135 -3 -131 -2 -135 17 -135 20 0 21 5 21 191 l0 190 -27 -3 c-27 -3 -29 -6
-54 -128 -14 -69 -28 -131 -30 -139 -3 -7 -15 44 -28 115 -30 164 -26 154 -56
154 l-25 0 0 -190z"/>
<path d="M2157 1263 c-4 -3 -7 -89 -7 -190 0 -176 1 -183 20 -183 19 0 20 7
20 190 0 152 -3 190 -13 190 -8 0 -17 -3 -20 -7z"/>
<path d="M2531 1218 c-12 -61 -51 -304 -51 -318 0 -6 6 -10 14 -10 16 0 21 13
31 78 6 40 9 42 40 42 32 0 33 -1 41 -57 7 -45 13 -59 28 -61 17 -4 18 1 11
55 -4 32 -18 116 -31 187 -13 71 -24 130 -24 132 0 2 -11 4 -24 4 -22 0 -26
-6 -35 -52z"/>
<path d="M2690 1080 c0 -188 0 -190 22 -190 21 0 21 1 15 142 -3 77 -2 137 2
132 5 -5 19 -47 30 -94 39 -156 46 -175 70 -178 21 -3 21 -2 21 187 0 162 -2
191 -15 191 -12 0 -15 -24 -17 -137 l-3 -138 -21 70 c-12 39 -30 100 -39 138
-16 59 -21 67 -41 67 l-24 0 0 -190z"/>
<path d="M2920 1250 c-18 -18 -20 -33 -20 -174 l0 -155 26 -20 c35 -28 67 -26
101 3 28 24 28 25 31 163 2 124 1 141 -17 171 -18 27 -26 32 -61 32 -27 0 -47
-7 -60 -20z m84 -26 c13 -12 16 -41 16 -148 0 -144 -6 -161 -52 -154 -23 3
-23 5 -26 147 -3 144 3 171 34 171 7 0 20 -7 28 -16z"/>
<path d="M452 888 l3 -93 313 -3 312 -2 0 95 0 95 -315 0 -316 0 3 -92z"/>
<path d="M1660 610 l0 -190 65 0 c51 0 65 3 65 15 0 11 -12 15 -50 15 l-50 0
0 74 0 75 42 3 c31 2 44 8 46 21 3 14 -4 17 -42 17 l-46 0 0 60 0 60 45 0 c38
0 45 3 45 20 0 18 -7 20 -60 20 l-60 0 0 -190z"/>
<path d="M1836 778 c-9 -13 -16 -43 -16 -71 0 -46 3 -52 55 -102 49 -46 55
-57 55 -92 0 -46 -18 -66 -52 -61 -18 2 -24 10 -26 36 -2 24 -8 32 -23 32 -29
0 -26 -54 6 -85 29 -30 64 -32 97 -5 55 42 39 146 -30 206 -44 38 -57 70 -42
109 15 40 54 31 58 -12 3 -26 8 -33 24 -33 18 0 20 4 15 37 -8 45 -29 63 -73
63 -23 0 -38 -7 -48 -22z"/>
<path d="M2024 779 c-16 -18 -20 -40 -22 -141 -2 -66 -1 -136 3 -155 13 -68
68 -92 119 -52 20 16 26 29 26 60 0 51 -23 52 -36 2 -10 -43 -40 -56 -61 -27
-18 25 -18 263 0 288 21 29 51 16 57 -24 3 -22 10 -35 20 -35 21 0 25 51 5 81
-21 32 -83 34 -111 3z"/>
<path d="M2224 792 c-27 -18 -34 -56 -34 -192 0 -136 1 -142 25 -165 27 -28
51 -31 90 -13 38 17 48 66 44 212 -4 120 -5 129 -28 147 -23 19 -76 25 -97 11z
m76 -41 c15 -28 13 -274 -2 -289 -17 -17 -55 -15 -62 4 -12 30 -7 279 6 292
18 18 46 14 58 -7z"/>
<path d="M2400 611 l0 -191 50 0 c72 0 100 29 100 102 0 32 -6 62 -15 76 -12
16 -13 27 -5 41 5 11 10 42 10 69 0 62 -21 83 -90 90 l-50 5 0 -192z"/>
<path d="M2590 610 l0 -190 65 0 c51 0 65 3 65 15 0 11 -12 15 -45 15 l-45 0
0 75 0 75 38 0 c43 0 53 6 45 26 -3 9 -20 14 -44 14 l-39 0 0 59 0 60 42 3
c31 2 44 8 46 21 3 15 -5 17 -62 17 l-66 0 0 -190z"/>
<path d="M2760 611 l0 -191 50 0 c41 0 56 5 75 25 24 23 25 29 25 163 0 171
-6 183 -93 190 l-57 4 0 -191z m108 132 c8 -11 12 -55 12 -133 0 -128 -11
-160 -56 -160 l-24 0 0 161 0 161 28 -6 c15 -4 33 -14 40 -23z"/>
<path d="M2986 787 c-25 -19 -34 -71 -32 -207 1 -120 1 -122 29 -146 34 -29
66 -31 101 -3 l26 20 0 159 c0 153 -1 159 -22 174 -27 19 -78 21 -102 3z m74
-27 c12 -7 16 -36 18 -132 4 -141 -5 -178 -42 -178 -38 0 -46 27 -46 164 0
100 3 128 16 140 18 18 32 20 54 6z"/>
</g>
</svg>
